<svg width="22" height="21" viewBox="0 0 22 21" fill="none" xmlns="http://www.w3.org/2000/svg">
<path d="M21 19.4819H0.759036C0.344096 19.4819 0 19.826 0 20.241C0 20.6559 0.344096 21 0.759036 21H21C21.4149 21 21.759 20.6559 21.759 20.241C21.759 19.826 21.4149 19.4819 21 19.4819Z" fill="#4894FE"/>
<path d="M15.9399 0H5.8194C2.78326 0 1.77121 1.81157 1.77121 4.04819V20.241H7.8435V14.108C7.8435 13.5817 8.26856 13.1566 8.79482 13.1566H12.9746C13.4907 13.1566 13.9259 13.5817 13.9259 14.108V20.241H19.9982V4.04819C19.9881 1.81157 18.976 0 15.9399 0ZM13.4098 7.33735H11.6387V9.10843C11.6387 9.52337 11.2946 9.86747 10.8796 9.86747C10.4647 9.86747 10.1206 9.52337 10.1206 9.10843V7.33735H8.34952C7.93458 7.33735 7.59048 6.99325 7.59048 6.57831C7.59048 6.16337 7.93458 5.81928 8.34952 5.81928H10.1206V4.04819C10.1206 3.63325 10.4647 3.28916 10.8796 3.28916C11.2946 3.28916 11.6387 3.63325 11.6387 4.04819V5.81928H13.4098C13.8247 5.81928 14.1688 6.16337 14.1688 6.57831C14.1688 6.99325 13.8247 7.33735 13.4098 7.33735Z" fill="#4894FE"/>
</svg>
