<svg width="15" height="20" viewBox="0 0 15 20" fill="none" xmlns="http://www.w3.org/2000/svg">
<path d="M7.03992 0C4.41992 0 2.28992 2.13 2.28992 4.75C2.28992 7.32 4.29992 9.4 6.91992 9.49C6.99992 9.48 7.07992 9.48 7.13992 9.49C7.15992 9.49 7.16992 9.49 7.18992 9.49C7.19992 9.49 7.19992 9.49 7.20992 9.49C9.76992 9.4 11.7799 7.32 11.7899 4.75C11.7899 2.13 9.65992 0 7.03992 0Z" fill="#4894FE"/>
<path d="M12.12 12.15C9.33 10.29 4.78 10.29 1.97 12.15C0.7 13 0 14.15 0 15.38C0 16.61 0.7 17.75 1.96 18.59C3.36 19.53 5.2 20 7.04 20C8.88 20 10.72 19.53 12.12 18.59C13.38 17.74 14.08 16.6 14.08 15.36C14.07 14.13 13.38 12.99 12.12 12.15ZM9.04 16.13H7.79V17.38C7.79 17.79 7.45 18.13 7.04 18.13C6.63 18.13 6.29 17.79 6.29 17.38V16.13H5.04C4.63 16.13 4.29 15.79 4.29 15.38C4.29 14.97 4.63 14.63 5.04 14.63H6.29V13.38C6.29 12.97 6.63 12.63 7.04 12.63C7.45 12.63 7.79 12.97 7.79 13.38V14.63H9.04C9.45 14.63 9.79 14.97 9.79 15.38C9.79 15.79 9.45 16.13 9.04 16.13Z" fill="#4894FE"/>
</svg>
