<svg width="18" height="18" viewBox="0 0 18 18" fill="none" xmlns="http://www.w3.org/2000/svg">
<path d="M5.43031 12.4813C5.12983 12.1808 5.12983 11.6824 5.43031 11.3819L7.62901 9.18323L4.88064 6.43486C4.47755 6.03177 3.81794 6.03177 3.41484 6.43486L1.78048 8.06923C-0.528149 10.3779 -0.645412 14.2769 1.74384 16.4902C2.83585 17.4943 4.22103 18 5.61354 18C7.07201 17.9927 8.53047 17.443 9.64448 16.329L11.4767 14.4967C11.8798 14.0937 11.8798 13.434 11.4767 13.0309L8.72836 10.2826L6.52966 12.4813C6.22917 12.7818 5.7308 12.7818 5.43031 12.4813Z" fill="#4894FE"/>
<path d="M12.2091 -1.78495e-06C10.7507 0.00732723 9.29221 0.557 8.1782 1.67101L6.34596 3.50325C5.94286 3.90635 5.94286 4.56595 6.34596 4.96905L9.09432 7.71742L11.293 5.51872C11.5935 5.21823 12.0919 5.21823 12.3924 5.51872C12.6929 5.81921 12.6929 6.31758 12.3924 6.61807L10.1937 8.81676L12.942 11.5651C13.3451 11.9682 14.0047 11.9682 14.4078 11.5651L16.0422 9.93077C18.3508 7.62214 18.4681 3.72312 16.0715 1.5171C14.9868 0.505698 13.5943 0.00732745 12.2091 -1.78495e-06Z" fill="#4894FE"/>
<path d="M9.09436 7.71742L7.62857 9.18322L8.72791 10.2826L10.1937 8.81677L9.09436 7.71742Z" fill="#4894FE"/>
</svg>
