<svg width="20" height="20" viewBox="0 0 20 20" fill="none" xmlns="http://www.w3.org/2000/svg">
<path d="M7.73688 1.53846H9.01893V6.41026C9.01893 6.83077 9.36765 7.17949 9.78816 7.17949C10.2087 7.17949 10.5574 6.83077 10.5574 6.41026V1.53846H11.8394C12.26 1.53846 12.6087 1.18974 12.6087 0.769231C12.6087 0.348718 12.26 0 11.8394 0H7.73688C7.31637 0 6.96765 0.348718 6.96765 0.769231C6.96765 1.18974 7.31637 1.53846 7.73688 1.53846Z" fill="#4894FE"/>
<path d="M11.8394 18.4615H10.5574V13.5897C10.5574 13.1692 10.2087 12.8205 9.78816 12.8205C9.36765 12.8205 9.01893 13.1692 9.01893 13.5897V18.4615H7.73688C7.31637 18.4615 6.96765 18.8103 6.96765 19.2308C6.96765 19.6513 7.31637 20 7.73688 20H11.8394C12.26 20 12.6087 19.6513 12.6087 19.2308C12.6087 18.8103 12.26 18.4615 11.8394 18.4615Z" fill="#4894FE"/>
<path d="M0.382906 7.82564C0.505983 7.89743 0.639316 7.9282 0.762393 7.9282C1.02906 7.9282 1.28547 7.79487 1.42906 7.53846L2.07521 6.43077L6.30086 8.87179C6.41368 8.94359 6.54701 8.97436 6.68034 8.97436C6.94701 8.97436 7.20342 8.84102 7.34701 8.58461C7.56239 8.22564 7.42906 7.75384 7.07009 7.53846L2.84444 5.09743L3.48034 3.98974C3.69573 3.62051 3.56239 3.14871 3.20342 2.94359C2.83419 2.7282 2.36239 2.85128 2.15727 3.22051L0.105983 6.76923C-0.109402 7.14871 0.0136752 7.61025 0.382906 7.82564Z" fill="#4894FE"/>
<path d="M19.1932 12.1744C18.824 11.959 18.3522 12.082 18.1471 12.4513L17.5009 13.559L13.2753 11.1282C12.9061 10.9128 12.4343 11.0462 12.2291 11.4051C12.0137 11.7744 12.1471 12.2462 12.5061 12.4513L16.7214 14.8923L16.0855 16C15.8702 16.3692 16.0035 16.841 16.3625 17.0462C16.4855 17.1179 16.6189 17.1487 16.742 17.1487C17.0086 17.1487 17.265 17.0154 17.4086 16.759L19.4599 13.2103C19.6855 12.8513 19.5625 12.3897 19.1932 12.1744Z" fill="#4894FE"/>
<path d="M16.7316 5.09744L12.5059 7.53847C12.1367 7.75385 12.0136 8.22565 12.229 8.58462C12.3726 8.83077 12.629 8.97436 12.8957 8.97436C13.029 8.97436 13.1623 8.9436 13.2752 8.8718L17.4905 6.43078L18.1367 7.53847C18.2803 7.78462 18.5367 7.92821 18.8034 7.92821C18.9367 7.92821 19.07 7.89744 19.1829 7.82565C19.5521 7.61026 19.6752 7.13847 19.4598 6.77949L17.4085 3.23078C17.1931 2.86154 16.7213 2.73847 16.3623 2.95385C15.9931 3.16924 15.87 3.64103 16.0854 4.00001L16.7316 5.09744Z" fill="#4894FE"/>
<path d="M2.84444 14.9026L7.05983 12.4615C7.42906 12.2462 7.55214 11.7744 7.33675 11.4154C7.12137 11.0462 6.64957 10.9231 6.2906 11.1385L2.07521 13.5795L1.42906 12.4718C1.21368 12.1026 0.74188 11.9795 0.382906 12.1949C0.0136752 12.4103 -0.109402 12.8821 0.105983 13.241L2.15726 16.7897C2.30085 17.0359 2.55726 17.1795 2.82393 17.1795C2.95726 17.1795 3.0906 17.1487 3.20342 17.0769C3.57265 16.8615 3.69573 16.3897 3.48034 16.0308L2.84444 14.9026Z" fill="#4894FE"/>
<path d="M13.3779 10C13.3779 10.6564 13.2035 11.2615 12.8959 11.7949C12.2702 12.8718 11.1112 13.5897 9.78816 13.5897C8.46508 13.5897 7.30611 12.8718 6.68047 11.7949C6.37278 11.2615 6.19842 10.6564 6.19842 10C6.19842 9.34359 6.37278 8.73847 6.68047 8.20513C7.30611 7.12821 8.46508 6.41026 9.78816 6.41026C11.1112 6.41026 12.2702 7.12821 12.8959 8.20513C13.2035 8.73847 13.3779 9.34359 13.3779 10Z" fill="#4894FE"/>
</svg>
